<?xml version="1.0" standalone="no"?>
<!DOCTYPE svg PUBLIC "-//W3C//DTD SVG 20010904//EN"
 "http://www.w3.org/TR/2001/REC-SVG-20010904/DTD/svg10.dtd">
<svg version="1.0" xmlns="http://www.w3.org/2000/svg"
 width="1200.000000pt" height="610.000000pt" viewBox="0 0 1200.000000 610.000000"
 preserveAspectRatio="xMidYMid meet">

<g transform="translate(0.000000,610.000000) scale(0.100000,-0.100000)"
fill="#000000" stroke="none">
<path d="M1861 5305 l-22 -75 -79 0 c-44 0 -80 -4 -80 -9 0 -6 27 -29 60 -52
33 -23 60 -45 60 -49 0 -4 -11 -38 -25 -75 -37 -96 -28 -106 42 -52 32 24 63
46 69 50 7 4 39 -13 73 -38 59 -43 81 -54 81 -37 0 4 -10 40 -21 80 -12 40
-20 74 -18 76 2 1 33 22 67 45 35 24 60 47 55 52 -4 4 -41 9 -82 11 l-75 3
-29 73 c-16 39 -35 72 -42 72 -6 0 -22 -34 -34 -75z"/>
<path d="M3812 4028 l3 -473 24 -52 c45 -101 122 -145 274 -159 136 -12 260
27 330 105 65 72 67 89 67 598 l0 453 -99 0 -100 0 -3 -437 c-3 -415 -4 -440
-23 -478 -26 -52 -74 -77 -137 -72 -59 5 -95 28 -116 75 -15 32 -17 94 -20
475 l-3 437 -100 0 -100 0 3 -472z"/>
<path d="M5580 4415 l0 -85 95 0 95 0 0 85 0 85 -95 0 -95 0 0 -85z"/>
<path d="M8890 4415 l0 -85 95 0 95 0 0 85 0 85 -95 0 -95 0 0 -85z"/>
<path d="M9700 4324 l0 -176 -27 33 c-34 40 -79 59 -143 59 -107 0 -168 -54
-195 -172 -33 -142 -30 -444 5 -569 26 -93 84 -141 175 -147 80 -5 115 8 160
61 l35 41 0 -42 0 -42 90 0 90 0 0 565 0 565 -95 0 -95 0 0 -176z m-40 -272
c36 -36 43 -97 38 -319 -3 -146 -5 -164 -24 -190 -18 -24 -28 -28 -69 -28 -41
0 -51 4 -69 28 -19 26 -21 44 -25 211 -4 206 7 287 42 311 34 24 75 19 107
-13z"/>
<path d="M11320 4324 l0 -176 -27 33 c-35 41 -79 59 -145 59 -154 -1 -204 -91
-215 -380 -13 -368 47 -510 217 -510 67 0 110 19 148 66 l32 39 0 -43 0 -42
90 0 90 0 0 565 0 565 -95 0 -95 0 0 -176z m-46 -266 c36 -31 46 -97 46 -287
0 -173 -9 -224 -45 -247 -37 -24 -94 -15 -119 19 -19 26 -21 44 -25 204 -4
217 3 278 34 309 31 31 76 31 109 2z"/>
<path d="M5061 4225 c-18 -8 -49 -32 -67 -52 l-34 -37 0 42 0 42 -95 0 -95 0
0 -425 0 -425 100 0 100 0 0 313 c0 277 2 316 18 347 29 60 104 67 139 13 16
-24 18 -62 21 -350 l3 -323 90 0 89 0 0 368 c0 362 0 368 -22 412 -34 64 -66
84 -146 87 -44 2 -78 -2 -101 -12z"/>
<path d="M6922 4226 c-65 -21 -111 -62 -141 -125 -26 -56 -26 -57 -26 -302 l0
-246 35 -69 c28 -55 45 -74 84 -99 48 -29 53 -30 170 -30 106 0 126 3 162 22
79 42 124 128 124 235 l0 48 -89 0 -89 0 -7 -49 c-3 -26 -15 -62 -25 -79 -35
-57 -118 -52 -151 10 -14 26 -30 178 -22 208 5 19 13 20 199 20 l194 0 -6 113
c-8 157 -20 210 -58 260 -52 68 -104 91 -216 94 -61 2 -110 -2 -138 -11z m187
-151 c15 -9 31 -74 31 -128 l0 -48 -97 3 -98 3 3 65 c2 75 23 112 68 121 28 5
72 -2 93 -16z"/>
<path d="M7865 4217 c-23 -13 -55 -44 -75 -75 l-35 -54 -3 66 -3 66 -89 0 -90
0 0 -425 0 -425 94 0 95 0 3 274 c3 259 4 276 24 303 27 37 80 63 127 63 l37
0 0 115 c0 113 0 115 -22 115 -13 0 -41 -10 -63 -23z"/>
<path d="M8290 4231 c-107 -35 -160 -106 -160 -216 0 -98 67 -190 210 -291
129 -90 159 -128 140 -178 -23 -61 -103 -75 -151 -27 -24 25 -29 37 -29 80 l0
51 -91 0 -92 0 6 -71 c8 -97 46 -165 113 -199 63 -33 194 -40 279 -16 98 29
155 109 155 217 -1 94 -65 179 -220 289 -137 97 -153 119 -137 181 9 34 54 54
102 45 41 -8 61 -34 71 -93 l7 -43 85 0 85 0 -7 58 c-10 87 -48 156 -104 189
-40 24 -59 28 -142 30 -52 1 -106 -1 -120 -6z"/>
<path d="M10325 4234 c-39 -10 -80 -28 -109 -47 -34 -24 -71 -103 -80 -169
l-6 -48 95 0 c89 0 95 1 95 20 0 35 27 88 51 101 13 6 41 12 63 12 31 0 45 -6
63 -27 28 -33 29 -61 4 -102 -14 -23 -50 -47 -144 -93 -186 -92 -227 -144
-227 -292 0 -155 73 -239 207 -239 68 0 134 29 166 72 l21 29 11 -38 11 -38
93 -3 c87 -3 93 -2 85 15 -4 10 -11 169 -14 353 -5 291 -8 340 -23 375 -41 90
-93 117 -237 121 -58 2 -114 1 -125 -2z m195 -521 c0 -54 -5 -115 -10 -135
-21 -74 -106 -103 -155 -53 -20 19 -25 34 -25 75 0 57 15 93 57 132 27 26 111
78 126 78 4 0 7 -44 7 -97z"/>
<path d="M5580 3795 l0 -425 95 0 95 0 0 425 0 425 -95 0 -95 0 0 -425z"/>
<path d="M5960 4209 c0 -9 160 -709 187 -816 5 -22 9 -23 124 -23 115 0 119 1
124 23 3 12 48 203 99 425 l93 403 -101 -3 -100 -3 -48 -285 c-57 -347 -58
-353 -63 -348 -2 2 -25 123 -50 268 -25 146 -50 289 -56 318 l-10 52 -100 0
c-67 0 -99 -4 -99 -11z"/>
<path d="M8890 3795 l0 -425 95 0 95 0 0 425 0 425 -95 0 -95 0 0 -425z"/>
<path d="M742 2908 l3 -1303 22 -42 c13 -23 37 -53 55 -66 94 -71 179 -96 853
-256 l210 -49 255 63 c140 34 325 82 410 105 345 93 410 123 451 206 l24 49 0
1295 0 1295 -1143 3 -1142 2 2 -1302z m1178 1057 l31 -94 102 -3 101 -3 -81
-59 -81 -58 14 -48 c8 -26 21 -67 29 -90 8 -23 15 -46 15 -51 0 -5 -37 18 -82
50 l-82 59 -31 -21 c-16 -12 -54 -38 -82 -59 -29 -21 -53 -35 -53 -31 0 4 13
49 29 100 l28 91 -81 59 -81 58 102 3 102 3 31 94 c17 52 33 95 35 95 2 0 18
-43 35 -95z m690 -640 l32 -95 101 0 101 0 -82 -60 c-45 -33 -82 -62 -82 -63
0 -2 13 -43 30 -92 16 -49 28 -90 25 -93 -2 -2 -35 18 -72 45 -37 27 -73 52
-80 56 -7 5 -44 -16 -89 -48 -42 -30 -79 -53 -81 -51 -3 2 7 41 21 86 14 44
26 86 26 93 0 7 -35 37 -76 67 l-76 55 99 5 98 5 27 75 c14 41 28 83 31 93 3
9 7 17 10 17 3 0 20 -43 37 -95z m-1390 -170 l32 -95 101 0 101 0 -75 -56
c-41 -30 -77 -58 -82 -63 -4 -4 6 -47 23 -96 16 -49 30 -93 30 -97 0 -5 -33
15 -72 45 -40 29 -78 56 -84 60 -6 4 -46 -18 -89 -49 -42 -30 -79 -53 -82 -50
-3 3 8 45 25 94 l30 90 -80 58 -80 59 99 3 99 3 23 72 c30 92 39 117 45 117 2
0 19 -43 36 -95z m1144 -515 l51 0 -39 -33 -39 -33 16 -47 c17 -50 16 -50 -35
-15 -34 24 -43 23 -84 -8 -38 -29 -40 -25 -20 34 l15 40 -42 29 -41 28 52 3
c49 3 51 4 63 40 19 59 22 60 38 9 l15 -47 50 0z m-444 -835 l31 -94 102 -3
102 -3 -82 -59 c-45 -32 -80 -63 -78 -70 2 -6 15 -48 30 -94 15 -46 25 -85 24
-87 -2 -2 -40 23 -84 55 l-80 58 -50 -36 c-27 -19 -65 -47 -84 -61 l-34 -26 6
25 c4 14 18 59 31 102 l24 76 -82 59 -81 58 102 3 102 3 31 94 c17 52 33 95
35 95 2 0 18 -43 35 -95z"/>
<path d="M9995 2753 c-32 -54 -60 -101 -62 -105 -2 -5 15 -8 39 -8 41 0 49 6
153 105 l110 104 -90 1 -91 0 -59 -97z"/>
<path d="M4160 2655 l0 -175 -39 39 c-30 30 -50 41 -86 47 -192 28 -264 -92
-264 -441 0 -181 21 -305 62 -366 38 -57 81 -79 154 -79 77 0 131 24 162 72
l21 33 0 -42 0 -43 90 0 90 0 0 565 0 565 -95 0 -95 0 0 -175z m-47 -265 c39
-31 49 -102 45 -310 -3 -162 -5 -181 -24 -206 -38 -52 -106 -51 -141 3 -16 24
-18 52 -18 238 0 152 4 219 13 241 23 53 80 69 125 34z"/>
<path d="M5300 2825 c0 -3 56 -255 125 -561 69 -306 125 -558 125 -560 0 -2
63 -4 139 -4 l139 0 6 28 c166 787 226 1079 226 1089 0 10 -28 13 -107 13
l-108 0 -75 -445 c-41 -245 -77 -442 -81 -437 -3 4 -41 196 -83 427 -43 231
-80 428 -82 438 -5 15 -19 17 -115 17 -60 0 -109 -2 -109 -5z"/>
<path d="M6850 2265 l0 -565 100 0 100 0 0 565 0 565 -100 0 -100 0 0 -565z"/>
<path d="M4681 2551 c-76 -26 -102 -49 -136 -116 l-30 -60 0 -240 c0 -209 2
-247 19 -294 23 -67 85 -132 142 -149 59 -17 211 -15 267 4 87 30 147 129 147
246 l0 48 -90 0 -89 0 -6 -37 c-12 -74 -16 -85 -40 -109 -28 -28 -79 -32 -112
-9 -25 18 -39 61 -48 156 -12 116 -24 109 197 109 l190 0 -4 138 c-3 122 -7
143 -30 193 -29 65 -75 104 -144 125 -65 19 -168 17 -233 -5z m192 -162 c12
-18 21 -49 24 -93 l6 -66 -102 0 -101 0 0 38 c1 60 17 116 41 135 34 28 106
20 132 -14z"/>
<path d="M6297 2560 c-103 -26 -158 -82 -177 -179 -16 -86 -21 -81 84 -81 l93
0 6 42 c8 58 43 88 101 88 58 0 88 -24 89 -72 2 -58 -23 -82 -149 -143 -187
-91 -237 -153 -237 -290 0 -116 37 -196 106 -229 79 -37 225 -9 264 50 21 33
30 30 37 -11 l7 -35 96 0 c87 0 94 1 87 18 -5 9 -11 166 -15 347 -4 234 -10
340 -19 365 -37 98 -93 130 -239 136 -53 2 -113 -1 -134 -6z m203 -517 c-1
-154 -30 -213 -106 -213 -67 0 -87 27 -82 112 3 61 7 71 38 103 32 33 124 94
143 95 4 0 7 -44 7 -97z"/>
<path d="M7494 2551 c-22 -10 -50 -34 -62 -52 l-22 -34 0 43 0 42 -95 0 -95 0
0 -570 0 -570 100 0 100 0 0 176 0 177 22 -28 c30 -38 76 -55 151 -55 50 0 71
5 98 23 44 29 75 76 89 135 17 68 24 413 11 503 -16 104 -54 176 -110 206 -54
28 -129 30 -187 4z m75 -165 c30 -32 45 -171 37 -337 -8 -175 -23 -209 -91
-209 -77 0 -96 46 -102 250 -6 186 5 265 42 298 35 30 85 29 114 -2z"/>
<path d="M8133 2560 c-111 -22 -183 -109 -183 -221 l0 -39 89 0 89 0 7 42 c11
61 43 88 104 88 42 0 53 -4 70 -26 27 -34 27 -74 0 -108 -12 -15 -74 -53 -138
-86 -136 -67 -174 -96 -203 -154 -45 -88 -33 -247 25 -313 42 -48 77 -63 147
-63 71 0 123 19 167 62 l32 31 8 -34 9 -34 93 -3 94 -3 -8 23 c-5 13 -11 174
-14 358 -6 334 -6 335 -31 380 -30 54 -74 85 -141 99 -57 13 -154 13 -216 1z
m197 -524 c0 -111 -8 -147 -42 -183 -29 -31 -97 -32 -124 -2 -29 33 -27 133 5
178 21 29 133 111 154 111 4 0 7 -47 7 -104z"/>
<path d="M9010 2559 c-35 -14 -68 -46 -101 -98 l-29 -45 0 67 0 67 -95 0 -95
0 0 -425 0 -425 100 0 100 0 0 266 c0 228 2 271 17 301 19 41 77 72 136 73
l37 0 0 115 c0 113 0 115 -22 114 -13 0 -34 -5 -48 -10z"/>
<path d="M9361 2554 c-102 -27 -155 -92 -168 -204 l-6 -50 97 0 96 0 0 34 c0
22 9 45 26 65 22 27 32 31 75 31 62 0 89 -24 89 -78 0 -53 -39 -87 -170 -150
-116 -55 -181 -110 -202 -170 -16 -48 -16 -176 1 -225 17 -50 57 -97 98 -113
42 -18 144 -18 186 0 18 7 46 27 62 45 34 36 45 39 45 12 0 -48 7 -51 106 -51
l94 0 -12 28 c-8 18 -14 141 -17 362 -6 320 -7 337 -28 376 -12 23 -33 48 -47
58 -67 43 -222 58 -325 30z m219 -494 c0 -158 -33 -230 -105 -230 -52 0 -73
15 -85 60 -15 57 -3 107 38 152 32 35 124 98 145 98 4 0 7 -36 7 -80z"/>
<path d="M10422 2552 c-98 -35 -145 -102 -145 -208 0 -101 72 -196 229 -306
97 -67 124 -99 124 -144 0 -43 -38 -74 -92 -74 -56 0 -83 31 -92 103 l-7 57
-85 0 -84 0 0 -48 c0 -64 25 -144 55 -180 14 -16 48 -39 76 -52 45 -19 66 -21
153 -18 129 4 185 29 231 103 25 41 30 58 30 114 0 114 -56 189 -235 312 -112
77 -141 117 -121 167 24 57 110 67 150 17 10 -14 21 -42 25 -65 l6 -40 86 0
86 0 -7 48 c-16 118 -44 166 -119 204 -59 31 -191 35 -264 10z"/>
<path d="M11117 2554 c-61 -19 -119 -76 -140 -139 -28 -80 -40 -210 -34 -355
13 -297 79 -380 301 -380 147 0 227 50 261 163 28 93 40 263 27 397 -20 198
-66 283 -174 315 -64 19 -177 18 -241 -1z m172 -144 c39 -20 46 -64 46 -297 0
-210 -1 -223 -21 -250 -42 -55 -126 -53 -154 5 -16 31 -26 359 -15 449 9 70
38 103 90 103 20 0 44 -4 54 -10z"/>
<path d="M9930 2125 l0 -425 100 0 100 0 0 425 0 425 -100 0 -100 0 0 -425z"/>
<path d="M8135 1177 c-91 -51 -108 -119 -103 -400 4 -228 14 -270 80 -321 41
-30 123 -49 182 -40 102 16 158 74 175 184 17 106 21 100 -58 100 l-69 0 -4
-59 c-6 -81 -27 -111 -78 -111 -83 0 -94 41 -88 326 3 195 11 227 60 236 59
11 108 -36 108 -104 0 -28 1 -28 66 -28 l67 0 -6 55 c-7 73 -42 134 -92 162
-57 32 -183 33 -240 0z"/>
<path d="M8900 810 l0 -380 65 0 65 0 2 172 3 173 95 0 95 0 3 -173 2 -173 68
3 67 3 0 375 0 375 -67 3 -68 3 0 -151 0 -150 -100 0 -100 0 0 150 0 150 -65
0 -65 0 0 -380z"/>
<path d="M9800 810 l0 -380 70 0 70 0 0 380 0 380 -70 0 -70 0 0 -380z"/>
<path d="M10370 810 l0 -380 200 0 200 0 0 65 0 65 -130 0 -130 0 0 315 0 315
-70 0 -70 0 0 -380z"/>
<path d="M11170 810 l0 -380 195 0 195 0 0 65 0 65 -130 0 -130 0 0 105 0 105
120 0 121 0 -3 58 -3 57 -117 3 -118 3 0 84 0 85 125 0 125 0 0 65 0 65 -190
0 -190 0 0 -380z"/>
</g>
</svg>
