<?xml version="1.0" standalone="no"?>
<!DOCTYPE svg PUBLIC "-//W3C//DTD SVG 20010904//EN"
 "http://www.w3.org/TR/2001/REC-SVG-20010904/DTD/svg10.dtd">
<svg version="1.0" xmlns="http://www.w3.org/2000/svg"
 width="875.000000pt" height="299.000000pt" viewBox="0 0 875.000000 299.000000"
 preserveAspectRatio="xMidYMid meet">

<g transform="translate(0.000000,299.000000) scale(0.100000,-0.100000)"
fill="#000000" stroke="none">
<path d="M1806 2939 c3 -6 13 -9 22 -7 10 1 23 -1 30 -5 7 -5 12 -4 12 2 0 6
-3 12 -7 12 -46 7 -63 6 -57 -2z"/>
<path d="M1920 2940 l-35 -7 43 -2 c27 0 41 3 37 9 -3 6 -7 9 -8 9 -1 -1 -18
-5 -37 -9z"/>
<path d="M1678 2933 c17 -2 47 -2 65 0 17 2 3 4 -33 4 -36 0 -50 -2 -32 -4z"/>
<path d="M2058 2923 c7 -3 16 -2 19 1 4 3 -2 6 -13 5 -11 0 -14 -3 -6 -6z"/>
<path d="M1355 2890 c-3 -5 -1 -10 4 -10 6 0 11 5 11 10 0 6 -2 10 -4 10 -3 0
-8 -4 -11 -10z"/>
<path d="M2330 2870 c20 -13 40 -13 40 0 0 6 -12 10 -27 10 -22 0 -25 -2 -13
-10z"/>
<path d="M2385 2871 c-3 -5 -1 -12 5 -16 5 -3 10 1 10 9 0 18 -6 21 -15 7z"/>
<path d="M2882 2624 c10 -10 20 -16 22 -13 3 3 -5 11 -17 18 -21 13 -21 12 -5
-5z"/>
<path d="M579 2503 l-24 -28 28 24 c25 23 32 31 24 31 -2 0 -14 -12 -28 -27z"/>
<path d="M447 2381 c-47 -50 -88 -87 -91 -84 -10 10 -7 52 4 74 6 11 7 19 1
19 -14 0 -21 -27 -21 -81 0 -41 -6 -57 -36 -95 -38 -51 -91 -149 -57 -107 10
12 34 47 53 77 l35 56 6 -58 c6 -63 13 -43 9 29 -2 43 2 51 47 101 27 30 55
52 61 50 7 -2 12 3 12 12 0 13 4 13 30 -2 16 -9 30 -20 30 -24 0 -12 -14 -10
-28 4 -6 6 -15 8 -19 4 -5 -4 2 -16 15 -26 12 -10 18 -21 13 -25 -6 -3 -20 4
-32 16 l-22 22 5 -21 c4 -12 2 -22 -3 -22 -22 0 -6 -19 29 -35 20 -10 57 -30
82 -45 25 -15 59 -30 75 -34 27 -5 28 -5 8 6 -26 13 -30 28 -8 28 8 0 15 5 15
10 0 6 -8 10 -17 8 -11 -2 -22 6 -28 20 -5 12 -17 25 -26 27 -10 3 -20 13 -23
22 -5 12 -1 14 14 10 15 -4 20 0 20 14 0 10 3 19 6 19 17 0 64 -36 73 -57 6
-12 15 -23 21 -23 13 0 -1 18 -60 76 -41 41 -48 44 -97 44 -62 0 -67 12 -20
51 17 16 27 28 21 29 -7 0 -50 -40 -97 -89z m99 -122 c8 -14 -10 -11 -32 6
-18 13 -18 14 4 8 12 -3 25 -9 28 -14z m44 -14 c0 -8 -4 -15 -9 -15 -13 0 -22
16 -14 24 11 11 23 6 23 -9z"/>
<path d="M4983 2370 c-26 -45 -28 -50 -10 -49 6 0 29 21 51 45 l39 44 -29 0
c-23 0 -34 -8 -51 -40z"/>
<path d="M6124 2200 l1 -210 22 0 23 0 0 210 0 210 -23 0 -23 0 0 -210z"/>
<path d="M7628 2367 c-38 -58 -16 -60 41 -3 l46 46 -30 0 c-24 0 -35 -8 -57
-43z"/>
<path d="M7965 2400 c-4 -6 -6 -34 -5 -63 3 -81 3 -79 -21 -66 -13 6 -42 9
-68 6 -86 -10 -141 -110 -112 -206 22 -76 103 -111 172 -77 21 11 35 13 37 6
2 -5 12 -10 21 -10 16 0 18 16 17 210 -1 190 -3 210 -18 210 -9 0 -20 -5 -23
-10z m-13 -164 c10 -9 15 -44 17 -104 2 -82 0 -92 -18 -101 -22 -12 -80 -15
-106 -5 -31 12 -49 66 -46 137 2 44 50 87 100 87 22 0 46 -6 53 -14z"/>
<path d="M1666 2375 c-3 -8 -11 -14 -18 -13 -7 2 -17 -7 -23 -19 -5 -13 -17
-23 -25 -23 -9 0 -26 -14 -39 -30 -17 -24 -20 -38 -15 -65 5 -30 3 -35 -12
-36 -18 0 -18 -1 0 -8 18 -7 18 -8 3 -14 -9 -3 -17 -11 -17 -18 0 -6 7 -9 15
-5 10 3 16 -1 17 -12 0 -9 2 -21 3 -27 2 -5 3 -16 4 -23 0 -7 6 -10 11 -7 6 3
10 -3 10 -14 0 -10 3 -21 8 -24 4 -2 0 -2 -8 1 -49 14 -122 32 -128 32 -15 -1
55 -28 93 -36 33 -8 42 -14 50 -41 7 -26 15 -33 33 -33 14 0 31 8 38 17 7 10
16 14 20 10 5 -4 3 -12 -4 -16 -9 -5 -3 -8 15 -9 15 -1 44 -3 63 -6 19 -2 62
-1 95 4 54 7 56 8 18 9 -37 1 -43 4 -44 24 l0 22 -11 -22 c-6 -13 -17 -23 -25
-23 -19 0 -16 17 5 29 16 10 16 10 0 11 -10 0 -18 7 -18 15 0 10 10 15 29 15
17 0 33 5 36 10 12 20 26 10 15 -10 -9 -16 -8 -20 5 -20 12 0 15 -6 10 -22 -6
-18 -5 -20 5 -11 7 6 20 9 29 6 11 -5 10 1 -6 19 -32 35 -28 41 12 17 l34 -21
22 21 c13 12 26 21 30 21 3 0 13 15 20 33 7 17 19 38 26 45 7 8 10 18 7 23 -3
6 2 19 11 29 10 11 12 20 6 24 -5 4 -13 -3 -16 -14 -5 -17 -10 -19 -21 -9 -8
7 -14 7 -14 1 0 -19 -33 -23 -52 -5 -14 13 -16 18 -6 25 10 6 10 8 1 8 -7 0
-13 5 -13 10 0 12 20 13 39 1 12 -8 13 -12 1 -25 -7 -9 -10 -19 -6 -23 3 -3 6
-1 6 6 0 7 5 9 12 5 6 -4 8 -3 5 3 -8 13 20 26 36 16 8 -5 8 -2 0 9 -7 8 -10
18 -6 22 4 4 0 4 -9 1 -9 -4 -19 -1 -24 6 -4 8 -3 10 4 5 7 -4 12 -2 12 4 0 6
4 9 9 5 5 -3 8 7 7 22 -2 22 -9 29 -29 31 -17 2 -27 11 -31 28 -10 37 -21 29
-21 -15 -1 -26 3 -37 11 -34 20 7 26 -16 10 -33 -15 -14 -17 -14 -22 0 -3 9
-12 16 -20 16 -8 0 -11 6 -7 18 4 13 3 14 -6 6 -7 -6 -14 -31 -17 -55 -3 -24
-7 -52 -8 -61 -1 -10 -6 -21 -11 -25 -4 -5 -5 -3 -2 3 4 7 0 15 -9 18 -15 6
-15 4 -2 -16 13 -20 13 -24 -10 -50 -20 -22 -34 -28 -64 -28 -27 0 -38 4 -35
13 2 6 18 12 35 12 43 0 64 22 28 31 -37 9 -33 28 5 20 26 -5 29 -4 20 8 -14
17 -51 28 -51 15 0 -5 -4 -9 -9 -9 -6 0 -11 19 -13 43 -3 41 -4 42 -35 39 -17
-2 -34 2 -38 7 -3 6 -1 11 5 11 8 0 10 9 6 26 -5 20 -3 27 13 31 12 3 18 10
15 15 -6 10 -52 -16 -70 -40 -7 -10 -13 -12 -18 -4 -3 6 -1 14 6 19 7 4 21 23
30 41 16 31 16 32 -1 32 -11 0 -21 -7 -25 -15z m46 -163 c11 -4 14 -12 9 -20
-9 -16 -41 -5 -41 14 0 15 6 16 32 6z m28 -62 c0 -5 -4 -10 -10 -10 -5 0 -10
5 -10 10 0 6 5 10 10 10 6 0 10 -4 10 -10z m285 0 c3 -5 -1 -10 -9 -10 -9 0
-16 5 -16 10 0 6 4 10 9 10 6 0 13 -4 16 -10z m-245 -16 c0 -2 -7 -4 -15 -4
-8 0 -15 4 -15 10 0 5 7 7 15 4 8 -4 15 -8 15 -10z m-75 -4 c3 -5 1 -10 -4
-10 -6 0 -11 5 -11 10 0 6 2 10 4 10 3 0 8 -4 11 -10z m289 -19 c-2 -3 -12 3
-22 13 -16 17 -16 18 5 5 12 -7 20 -15 17 -18z m-240 -93 c19 -37 16 -62 -5
-41 -6 6 -18 9 -27 6 -12 -5 -14 -1 -9 17 3 13 1 32 -4 43 -9 15 -8 18 7 15
10 -2 27 -20 38 -40z m-84 -13 c-7 -8 -20 -15 -29 -15 -13 1 -13 3 3 15 26 19
42 19 26 0z"/>
<path d="M1891 2386 c2 -2 15 -9 29 -16 23 -12 24 -12 11 3 -7 10 -20 17 -29
17 -8 0 -13 -2 -11 -4z"/>
<path d="M4407 2384 c-10 -11 -9 -42 3 -49 20 -12 51 6 48 28 -3 22 -36 35
-51 21z"/>
<path d="M5674 2375 c-8 -21 2 -45 19 -45 20 0 40 27 33 45 -7 19 -45 20 -52
0z"/>
<path d="M6027 2384 c-10 -11 -9 -42 3 -49 20 -12 51 6 48 28 -3 22 -36 35
-51 21z"/>
<path d="M6617 2384 c-10 -11 -9 -42 3 -49 20 -12 51 6 48 28 -3 22 -36 35
-51 21z"/>
<path d="M8057 2376 c-8 -20 2 -46 17 -46 21 0 38 18 34 36 -4 24 -43 31 -51
10z"/>
<path d="M5471 2358 c-66 -34 -103 -86 -109 -152 -2 -30 -1 -71 2 -91 10 -52
66 -110 121 -124 79 -20 155 -11 155 18 0 13 -12 16 -69 16 -75 0 -104 14
-145 69 -29 39 -29 143 0 182 38 52 66 66 133 65 53 0 62 2 59 17 -5 28 -93
28 -147 0z"/>
<path d="M6348 2373 l-38 -4 0 -190 0 -189 77 0 c125 0 183 40 183 125 0 25
-8 40 -31 59 -17 14 -35 26 -41 26 -6 0 1 11 15 24 46 42 47 102 4 131 -25 16
-111 25 -169 18z m109 -34 c33 -12 43 -26 43 -60 0 -41 -31 -61 -97 -63 l-58
-1 -3 62 c-2 52 0 62 15 66 33 9 71 7 100 -4z m18 -173 c40 -17 55 -41 48 -79
-7 -34 -34 -53 -90 -62 -75 -12 -83 -4 -83 81 l0 74 45 0 c25 0 61 -6 80 -14z"/>
<path d="M1791 2358 c-1 -9 -9 -22 -18 -27 -14 -8 -15 -10 -3 -11 26 0 38 14
29 35 -6 16 -8 17 -8 3z"/>
<path d="M3140 2180 c0 -183 1 -190 20 -190 19 0 20 7 20 190 0 183 -1 190
-20 190 -19 0 -20 -7 -20 -190z"/>
<path d="M1849 2343 c-13 -16 -12 -17 4 -4 9 7 17 15 17 17 0 8 -8 3 -21 -13z"/>
<path d="M2990 2350 c0 -5 5 -10 10 -10 6 0 10 5 10 10 0 6 -4 10 -10 10 -5 0
-10 -4 -10 -10z"/>
<path d="M2925 2310 c-16 -16 -24 -30 -17 -30 6 0 16 9 22 21 6 11 21 24 33
29 14 6 16 9 6 9 -8 1 -28 -12 -44 -29z"/>
<path d="M3010 2298 c-1 -10 -3 -23 -4 -28 0 -6 -8 -15 -16 -20 -8 -5 -10 -10
-4 -10 19 0 36 28 31 52 -3 17 -5 18 -7 6z"/>
<path d="M3750 2289 c-10 -18 -17 -20 -60 -14 -59 8 -114 -8 -135 -38 -22 -31
-19 -89 6 -116 20 -21 20 -23 3 -42 -15 -17 -16 -25 -7 -50 10 -26 9 -32 -13
-54 -30 -31 -31 -66 0 -101 20 -24 33 -28 88 -32 105 -7 171 36 171 109 0 48
-30 70 -104 75 -99 8 -109 11 -109 38 0 22 5 24 60 28 97 7 126 48 108 153 -2
15 3 21 25 23 19 2 27 9 27 23 0 27 -46 26 -60 -2z m-69 -39 c18 0 49 -41 49
-65 0 -56 -88 -88 -132 -48 -45 41 3 135 60 117 8 -2 18 -4 23 -4z m74 -280
c22 -18 19 -45 -9 -77 -22 -25 -31 -28 -86 -28 -53 0 -65 3 -81 24 -24 29 -24
59 -1 84 15 17 27 19 89 15 40 -3 79 -11 88 -18z"/>
<path d="M3328 2259 c-32 -16 -38 -17 -38 -4 0 10 -9 15 -26 15 -20 0 -25 -4
-20 -16 3 -9 6 -72 6 -140 0 -117 1 -124 20 -124 19 0 20 7 20 109 0 102 2
111 22 125 31 22 101 21 121 -2 14 -15 17 -40 17 -125 0 -100 1 -107 20 -107
22 0 22 -5 20 133 -1 116 -4 123 -41 142 -38 20 -76 18 -121 -6z"/>
<path d="M3886 2259 c-38 -30 -56 -71 -56 -129 0 -59 18 -100 54 -124 53 -34
186 -33 186 2 0 15 -9 17 -65 14 -63 -4 -66 -3 -100 31 -19 19 -35 44 -35 56
0 20 5 21 105 21 93 0 105 2 105 18 0 39 -22 92 -47 112 -35 28 -111 27 -147
-1z m110 -17 c15 -10 34 -47 34 -66 0 -13 -14 -16 -80 -16 -49 0 -80 4 -80 10
0 18 29 68 42 73 20 8 72 8 84 -1z"/>
<path d="M4193 2261 c-26 -16 -32 -17 -37 -5 -3 8 -14 14 -24 14 -16 0 -18
-11 -17 -140 0 -138 0 -140 22 -140 22 0 22 4 25 118 l3 117 35 11 c35 12 84
4 104 -16 7 -7 10 -55 10 -121 -2 -105 -1 -109 20 -109 21 0 21 3 20 121 -2
106 -5 124 -22 141 -29 30 -99 34 -139 9z"/>
<path d="M4423 2273 c-21 -4 -21 -8 -20 -144 0 -139 0 -139 24 -139 l23 0 0
145 c0 80 -1 144 -2 144 -2 -1 -13 -4 -25 -6z"/>
<path d="M4540 2242 c-106 -105 -37 -262 114 -262 56 0 76 8 76 29 0 13 -8 15
-45 13 -25 -2 -56 -1 -70 2 -33 8 -75 55 -75 83 0 22 3 23 100 23 l100 0 0 35
c0 74 -43 115 -121 115 -35 0 -48 -6 -79 -38z m126 0 c15 -10 34 -47 34 -66 0
-13 -14 -16 -80 -16 -49 0 -80 4 -80 10 0 18 29 68 42 73 20 8 72 8 84 -1z"/>
<path d="M4852 2260 c-25 -24 -42 -26 -42 -5 0 9 -9 15 -21 15 -19 0 -21 -4
-15 -31 3 -17 6 -80 6 -140 0 -102 1 -109 20 -109 19 0 20 7 20 100 0 94 2
103 25 126 19 19 34 24 65 22 l40 -2 1 -50 c1 -28 1 -84 -1 -123 -2 -73 -2
-73 24 -73 l26 0 0 139 0 138 -46 7 c-69 9 -78 8 -102 -14z"/>
<path d="M5073 2273 c-13 -2 -23 -11 -23 -19 0 -11 16 -14 73 -14 80 0 97 -9
97 -52 0 -23 -4 -28 -26 -28 -51 0 -115 -23 -134 -48 -29 -36 -26 -86 6 -111
32 -25 71 -27 122 -6 24 10 38 12 40 5 2 -5 13 -10 24 -10 16 0 19 5 14 23 -3
12 -6 68 -6 124 0 100 -1 103 -26 120 -26 17 -116 26 -161 16z m147 -157 c0
-7 3 -27 6 -43 5 -24 2 -31 -21 -41 -36 -17 -100 -15 -115 3 -20 24 -3 64 33
80 42 19 97 19 97 1z"/>
<path d="M6769 2257 c-85 -56 -92 -194 -14 -255 58 -46 165 -19 201 50 22 43
22 127 -1 165 -38 64 -123 83 -186 40z m126 -31 c13 -13 27 -40 30 -60 23
-121 -70 -202 -146 -127 -25 26 -29 37 -29 86 0 56 19 109 42 118 34 14 80 6
103 -17z"/>
<path d="M7092 2261 c-28 -18 -33 -19 -38 -6 -4 8 -17 15 -31 15 -20 0 -24 -4
-18 -17 3 -10 6 -73 6 -140 l0 -123 24 0 25 0 0 115 c0 129 3 135 78 135 61 0
68 -15 64 -142 l-3 -108 25 0 26 0 0 115 c0 128 4 135 74 135 58 0 66 -17 66
-141 0 -102 1 -109 20 -109 19 0 20 7 20 119 0 98 -3 122 -17 140 -27 32 -84
38 -131 13 -35 -18 -41 -19 -55 -5 -25 25 -97 27 -135 4z"/>
<path d="M7531 2255 c-84 -71 -72 -214 22 -258 59 -28 167 -20 167 12 0 15 -9
16 -65 13 -63 -4 -66 -3 -100 31 -19 19 -35 44 -35 56 0 20 5 21 105 21 l105
0 0 25 c0 38 -25 90 -51 109 -37 26 -111 21 -148 -9z m115 -13 c15 -10 34 -47
34 -66 0 -13 -14 -16 -80 -16 -49 0 -80 4 -80 10 0 18 29 68 42 73 20 8 72 8
84 -1z"/>
<path d="M8232 2272 c-35 -11 -81 -60 -93 -102 -30 -99 39 -190 145 -190 46 0
66 9 66 29 0 13 -8 16 -40 13 -22 -2 -53 1 -68 7 -56 23 -79 109 -47 171 16
31 33 38 100 42 28 2 40 8 40 18 0 17 -62 24 -103 12z"/>
<path d="M8403 2273 c-13 -2 -23 -11 -23 -19 0 -11 16 -14 69 -14 73 0 85 -6
96 -51 6 -26 5 -26 -55 -33 -46 -5 -68 -14 -91 -34 -84 -75 10 -179 114 -126
21 12 32 13 35 5 2 -6 12 -11 23 -11 18 0 19 8 19 114 0 106 -2 117 -23 142
-21 23 -33 28 -83 30 -32 1 -69 0 -81 -3z m147 -188 c0 -52 -16 -65 -79 -65
-43 0 -76 23 -67 47 3 8 6 19 6 24 0 15 61 38 103 39 l37 0 0 -45z"/>
<path d="M5670 2130 l0 -140 24 0 24 0 -1 140 0 140 -23 0 -24 0 0 -140z"/>
<path d="M5750 2258 c0 -6 23 -69 52 -140 50 -123 71 -150 85 -110 3 9 30 70
60 135 29 65 53 120 53 123 0 3 -10 4 -22 2 -19 -2 -29 -20 -58 -105 -19 -56
-39 -102 -44 -103 -5 -1 -20 27 -33 62 -13 35 -30 82 -39 106 -11 29 -21 42
-35 42 -10 0 -19 -5 -19 -12z"/>
<path d="M6020 2130 l0 -140 25 0 25 0 0 140 0 140 -25 0 -25 0 0 -140z"/>
<path d="M6610 2130 l0 -140 25 0 25 0 0 140 0 140 -25 0 -25 0 0 -140z"/>
<path d="M8050 2130 l0 -140 25 0 25 0 0 140 0 140 -25 0 -25 0 0 -140z"/>
<path d="M1828 2253 c-14 -3 -15 -9 -6 -34 11 -33 14 -34 34 -14 8 8 23 19 32
25 15 8 15 11 2 20 -15 10 -33 11 -62 3z"/>
<path d="M2800 2250 c-9 -6 -10 -10 -3 -10 6 0 15 5 18 10 8 12 4 12 -15 0z"/>
<path d="M795 2235 c34 -16 72 -21 45 -6 -8 5 -28 11 -45 14 l-30 6 30 -14z"/>
<path d="M2758 2233 c7 -3 16 -2 19 1 4 3 -2 6 -13 5 -11 0 -14 -3 -6 -6z"/>
<path d="M955 2212 c16 -13 67 -33 61 -23 -3 5 -20 14 -38 20 -18 6 -28 8 -23
3z"/>
<path d="M2933 2193 c-26 -27 -25 -27 16 -10 24 10 29 16 19 23 -9 7 -19 3
-35 -13z"/>
<path d="M2995 2200 c-3 -6 1 -7 9 -4 18 7 21 14 7 14 -6 0 -13 -4 -16 -10z"/>
<path d="M2580 2190 c-9 -6 -10 -10 -3 -10 6 0 15 5 18 10 8 12 4 12 -15 0z"/>
<path d="M686 2169 c3 -5 11 -9 18 -9 7 0 57 -22 112 -50 100 -50 105 -49 17
5 -50 30 -157 70 -147 54z"/>
<path d="M1064 2167 c10 -7 33 -23 50 -36 l31 -25 -29 31 c-15 17 -38 34 -50
36 -20 5 -20 5 -2 -6z"/>
<path d="M2481 2140 c-24 -17 -57 -30 -72 -30 -16 0 -59 -11 -95 -25 -53 -20
-74 -23 -99 -16 -37 10 -98 1 -135 -20 -14 -7 -45 -19 -70 -24 -26 -7 -44 -16
-42 -23 1 -7 -5 -15 -13 -18 -23 -9 -18 -21 12 -27 16 -3 32 1 42 10 12 12 36
14 125 11 126 -5 176 -19 156 -43 -11 -14 -10 -14 14 -5 34 13 156 13 190 1
16 -7 26 -20 29 -38 3 -25 4 -24 6 7 1 36 1 36 -53 47 -30 6 -65 9 -78 6 -48
-12 -1 18 66 41 37 13 70 27 74 31 15 14 -56 -9 -127 -42 -66 -31 -76 -34
-100 -22 -14 7 -29 12 -32 11 -4 -1 -22 3 -40 9 -43 13 -229 12 -246 -2 -7 -6
-18 -9 -25 -6 -8 4 -5 8 10 12 12 4 22 11 22 16 0 4 19 13 43 20 23 6 45 16
49 22 9 15 127 22 140 9 8 -8 22 -5 51 9 21 11 70 27 109 35 57 12 148 55 148
70 0 10 -18 1 -59 -26z"/>
<path d="M2787 2120 c-38 -22 -107 -53 -153 -69 -46 -15 -81 -31 -78 -34 7 -6
23 -2 69 18 17 8 44 17 60 21 17 4 58 25 93 46 34 21 67 38 72 38 5 0 12 5 15
10 11 18 -9 10 -78 -30z"/>
<path d="M340 2080 c0 -11 2 -20 4 -20 2 0 6 9 9 20 3 11 1 20 -4 20 -5 0 -9
-9 -9 -20z"/>
<path d="M208 2058 c-19 -30 -89 -200 -85 -205 2 -2 19 32 36 74 18 43 41 93
52 112 22 38 20 54 -3 19z"/>
<path d="M925 2060 c3 -5 11 -10 16 -10 6 0 7 5 4 10 -3 6 -11 10 -16 10 -6 0
-7 -4 -4 -10z"/>
<path d="M1337 2058 c5 -10 52 -9 78 1 13 6 3 8 -31 7 -29 -1 -50 -4 -47 -8z"/>
<path d="M346 1913 c6 -147 14 -191 14 -78 0 59 2 66 15 55 8 -7 15 -9 15 -6
0 4 7 0 16 -8 15 -16 39 -13 29 4 -3 4 11 8 30 8 19 0 35 -4 35 -9 0 -5 4 -9
10 -9 5 0 9 3 9 8 -3 17 3 19 41 12 22 -4 40 -5 40 -3 0 2 -14 17 -32 34 -21
18 -39 27 -50 23 -21 -6 -26 21 -5 29 11 5 -17 11 -35 8 -5 0 -8 4 -8 9 0 15
53 0 63 -17 6 -10 18 -12 38 -8 19 4 36 1 51 -9 12 -9 27 -16 32 -16 6 0 0 8
-14 17 -52 37 -237 70 -228 41 3 -7 14 -14 26 -16 42 -6 21 -37 -30 -45 -36
-5 -61 6 -36 16 10 4 10 6 1 6 -7 1 -10 7 -7 15 3 8 0 17 -6 21 -6 4 -8 15 -5
25 3 10 1 21 -4 25 -7 4 -9 -40 -5 -132z m144 43 c0 -2 -7 -7 -16 -10 -8 -3
-12 -2 -9 4 6 10 25 14 25 6z"/>
<path d="M1005 2035 c22 -8 50 -15 62 -15 12 0 46 -9 75 -19 57 -21 129 -37
93 -22 -22 10 -136 44 -201 61 -59 15 -76 12 -29 -5z"/>
<path d="M2185 2020 c-3 -6 1 -7 9 -4 18 7 21 14 7 14 -6 0 -13 -4 -16 -10z"/>
<path d="M1565 1990 c-3 -5 -2 -10 4 -10 5 0 13 5 16 10 3 6 2 10 -4 10 -5 0
-13 -4 -16 -10z"/>
<path d="M1460 1980 c0 -7 14 -8 38 -4 51 9 53 14 4 14 -23 0 -42 -5 -42 -10z"/>
<path d="M1398 1973 c6 -2 12 -16 12 -29 0 -14 -4 -23 -9 -19 -5 3 -12 1 -16
-5 -3 -5 1 -10 9 -10 9 0 16 -7 16 -17 0 -9 3 -13 7 -9 4 4 7 27 8 51 0 39 -3
45 -20 44 -11 0 -14 -3 -7 -6z"/>
<path d="M2994 1965 c-18 -14 -18 -14 4 -8 12 3 22 9 22 14 0 12 -3 11 -26 -6z"/>
<path d="M400 1966 c0 -2 9 -6 20 -9 11 -3 18 -1 14 4 -5 9 -34 13 -34 5z"/>
<path d="M1330 1959 c0 -7 -12 -9 -35 -5 -22 4 -35 3 -35 -4 0 -5 11 -10 24
-10 14 0 28 -4 31 -10 3 -5 14 -10 23 -10 14 0 15 2 2 10 -16 10 -15 11 20 27
l25 12 -27 0 c-16 1 -28 -4 -28 -10z"/>
<path d="M808 1953 c6 -2 18 -2 25 0 6 3 1 5 -13 5 -14 0 -19 -2 -12 -5z"/>
<path d="M995 1953 c22 -2 50 -9 62 -15 13 -6 26 -8 30 -5 13 14 -9 21 -70 23
-34 1 -44 0 -22 -3z"/>
<path d="M2698 1953 c7 -3 16 -2 19 1 4 3 -2 6 -13 5 -11 0 -14 -3 -6 -6z"/>
<path d="M2777 1948 c2 -5 38 -8 80 -8 42 0 73 3 70 7 -10 9 -156 10 -150 1z"/>
<path d="M718 1943 c12 -2 32 -2 45 0 12 2 2 4 -23 4 -25 0 -35 -2 -22 -4z"/>
<path d="M1360 1940 c0 -5 5 -10 11 -10 5 0 7 5 4 10 -3 6 -8 10 -11 10 -2 0
-4 -4 -4 -10z"/>
<path d="M2550 1940 c-18 -12 -2 -12 25 0 13 6 15 9 5 9 -8 0 -22 -4 -30 -9z"/>
<path d="M1116 1931 c-4 -5 3 -7 14 -4 23 6 26 13 6 13 -8 0 -17 -4 -20 -9z"/>
<path d="M2141 1870 c-13 -11 -18 -20 -12 -20 21 0 11 -28 -22 -62 -26 -27
-32 -42 -32 -76 0 -23 1 -42 2 -42 1 0 7 19 14 42 13 50 45 98 64 98 8 0 17 5
21 12 5 8 2 9 -10 5 -17 -7 -17 1 1 51 7 16 2 15 -26 -8z"/>
<path d="M645 1870 c-3 -5 -1 -10 4 -10 6 0 11 5 11 10 0 6 -2 10 -4 10 -3 0
-8 -4 -11 -10z"/>
<path d="M1071 1863 c-1 -19 4 -23 27 -22 22 1 23 2 5 6 -12 2 -24 12 -26 21
-3 12 -5 10 -6 -5z"/>
<path d="M720 1858 c0 -4 14 -8 30 -8 17 0 30 2 30 4 0 2 -13 6 -30 8 -16 3
-30 1 -30 -4z"/>
<path d="M1460 1864 c0 -12 59 -74 71 -74 14 0 10 -27 -6 -44 -13 -13 -14 -20
-2 -48 l14 -33 6 43 7 42 30 -15 c16 -8 35 -15 42 -15 7 1 -4 10 -24 21 -21
11 -38 25 -38 32 0 12 -56 67 -67 67 -3 0 -12 8 -19 18 -7 9 -14 12 -14 6z"/>
<path d="M2960 1862 c0 -5 14 -12 30 -14 17 -3 30 -1 30 4 0 4 -6 8 -14 8 -8
0 -21 3 -30 6 -9 3 -16 2 -16 -4z"/>
<path d="M2515 1840 c-3 -5 -1 -10 4 -10 6 0 11 5 11 10 0 6 -2 10 -4 10 -3 0
-8 -4 -11 -10z"/>
<path d="M2860 1846 c0 -9 40 -13 46 -5 3 5 -6 9 -20 9 -14 0 -26 -2 -26 -4z"/>
<path d="M983 1833 c9 -2 23 -2 30 0 6 3 -1 5 -18 5 -16 0 -22 -2 -12 -5z"/>
<path d="M1446 1825 c-3 -8 -1 -14 4 -12 5 1 16 -7 25 -18 15 -18 15 -18 0 13
-18 36 -21 38 -29 17z"/>
<path d="M2328 1833 c7 -3 16 -2 19 1 4 3 -2 6 -13 5 -11 0 -14 -3 -6 -6z"/>
<path d="M2770 1830 c0 -13 11 -13 30 0 12 8 11 10 -7 10 -13 0 -23 -4 -23
-10z"/>
<path d="M106 1815 c-3 -9 -6 -22 -5 -28 0 -7 5 -1 10 12 5 13 8 26 5 28 -2 2
-6 -3 -10 -12z"/>
<path d="M2075 1822 c-6 -4 -21 -22 -34 -39 -12 -18 -36 -37 -54 -42 -32 -9
-32 -9 -4 -10 29 -1 74 35 96 77 13 24 12 26 -4 14z"/>
<path d="M1790 1773 c0 -6 -10 -14 -22 -18 -16 -4 -19 -8 -10 -12 16 -6 49 23
39 33 -4 4 -7 3 -7 -3z"/>
<path d="M83 1735 c-6 -19 -8 -35 -3 -35 8 0 23 60 17 67 -2 1 -8 -13 -14 -32z"/>
<path d="M1490 1760 c0 -5 5 -10 11 -10 5 0 7 5 4 10 -3 6 -8 10 -11 10 -2 0
-4 -4 -4 -10z"/>
<path d="M1830 1761 c0 -11 31 -24 39 -16 3 3 -1 10 -9 15 -19 12 -30 12 -30
1z"/>
<path d="M1890 1738 c0 -4 14 -8 30 -8 17 0 30 2 30 4 0 2 -13 6 -30 8 -16 3
-30 1 -30 -4z"/>
<path d="M1700 1730 c-8 -5 -10 -10 -5 -10 6 0 17 5 25 10 8 5 11 10 5 10 -5
0 -17 -5 -25 -10z"/>
<path d="M3807 1723 c-3 -5 -4 -65 -4 -135 0 -92 4 -128 12 -128 9 0 12 37 12
135 0 119 -5 153 -20 128z"/>
<path d="M4294 1716 c-4 -9 -4 -30 -2 -46 4 -29 3 -30 -33 -30 -21 0 -45 -3
-54 -6 -34 -13 -56 -93 -39 -139 10 -26 63 -45 92 -34 14 5 32 7 42 4 15 -5
17 6 18 125 1 118 -8 166 -24 126z m0 -112 c10 -26 7 -112 -4 -119 -16 -10
-70 -9 -81 2 -20 20 -27 69 -13 101 11 28 18 32 52 32 27 0 42 -5 46 -16z"/>
<path d="M4536 1719 c-3 -8 -7 -30 -8 -49 -3 -33 -5 -35 -35 -32 -18 2 -41 1
-52 -3 -22 -7 -51 -62 -51 -98 0 -35 39 -79 70 -78 14 0 41 1 61 2 l35 1 -2
130 c-2 123 -7 159 -18 127z m-6 -165 c0 -58 -2 -66 -22 -73 -25 -9 -68 3 -80
22 -11 17 -10 65 3 88 13 24 44 37 76 31 21 -4 23 -9 23 -68z"/>
<path d="M6094 1722 c-16 -10 -36 -52 -26 -52 11 0 46 49 40 55 -2 2 -8 1 -14
-3z"/>
<path d="M3120 1585 c0 -77 4 -125 10 -125 6 0 10 25 10 55 l0 55 40 0 c22 0
40 5 40 10 0 6 -18 10 -41 10 l-40 0 3 48 3 47 53 -2 c40 -2 52 1 52 12 0 12
-15 15 -65 15 l-65 0 0 -125z"/>
<path d="M4857 1703 c-4 -3 -7 -60 -7 -125 0 -98 3 -118 15 -118 13 0 15 21
15 125 0 114 -5 137 -23 118z"/>
<path d="M5705 1701 c-3 -5 -1 -12 5 -16 12 -7 30 2 30 16 0 12 -27 12 -35 0z"/>
<path d="M71 1674 c0 -11 3 -14 6 -6 3 7 2 16 -1 19 -3 4 -6 -2 -5 -13z"/>
<path d="M3884 1663 c-4 -16 -14 -33 -23 -40 -14 -11 -14 -12 2 -13 14 0 17
-9 17 -47 0 -27 3 -58 6 -71 7 -25 44 -39 71 -27 15 7 12 9 -12 14 -26 5 -31
12 -39 52 -11 58 -4 79 29 79 14 0 25 5 25 10 0 6 -11 10 -25 10 -21 0 -25 5
-25 30 0 38 -17 39 -26 3z"/>
<path d="M2108 1673 c7 -3 16 -2 19 1 4 3 -2 6 -13 5 -11 0 -14 -3 -6 -6z"/>
<path d="M2050 1613 c-6 -26 -17 -61 -23 -78 -12 -32 -11 -71 4 -95 6 -10 8
-3 6 22 -1 21 -6 38 -11 38 -5 0 -3 7 4 16 8 8 16 32 20 52 3 20 11 36 17 35
7 -2 10 8 9 22 -4 42 -13 38 -26 -12z"/>
<path d="M5257 1646 c-4 -10 -18 -12 -50 -9 -37 4 -48 2 -66 -18 -25 -27 -27
-52 -5 -74 13 -12 14 -19 4 -30 -7 -8 -10 -21 -6 -30 3 -8 -2 -28 -12 -45 -16
-29 -16 -30 6 -52 33 -34 107 -30 139 6 44 51 22 86 -54 86 -41 0 -72 14 -59
27 4 4 26 12 49 18 48 12 71 44 57 81 -7 18 -5 24 10 29 11 4 20 11 20 16 0
14 -27 11 -33 -5z m-28 -35 c12 -12 17 -27 14 -40 -6 -25 -49 -38 -72 -24 -23
15 -26 54 -5 70 25 18 41 16 63 -6z m25 -157 c22 -9 20 -51 -3 -64 -27 -14
-84 -13 -99 2 -13 13 -16 50 -5 61 8 9 86 9 107 1z"/>
<path d="M4644 1635 c-50 -21 -70 -92 -38 -140 21 -33 85 -51 116 -33 22 12
20 13 -22 16 -49 4 -80 24 -80 54 0 15 8 18 60 18 59 0 60 0 60 28 0 49 -48
78 -96 57z m54 -21 c43 -30 20 -51 -55 -52 -29 -1 -30 21 -3 48 24 24 29 24
58 4z"/>
<path d="M5373 1639 c-55 -20 -73 -117 -29 -159 28 -25 97 -33 118 -12 9 9 3
12 -33 12 -51 0 -89 22 -89 51 0 17 7 19 65 19 61 0 65 1 65 23 0 50 -50 84
-97 66z m48 -19 c43 -24 15 -59 -48 -60 -52 0 -31 58 25 69 2 1 12 -4 23 -9z"/>
<path d="M5813 1639 c-47 -17 -69 -102 -38 -146 17 -25 74 -44 105 -36 34 9
22 23 -20 23 -42 0 -80 26 -80 55 0 12 14 15 65 15 61 0 65 1 65 23 0 49 -50
84 -97 66z m49 -21 c8 -7 18 -21 21 -30 5 -14 -3 -18 -39 -24 -26 -4 -50 -2
-55 3 -14 14 0 43 25 53 29 12 30 12 48 -2z"/>
<path d="M3285 1630 c-4 -6 11 -10 38 -10 47 0 74 -19 63 -45 -3 -9 -18 -15
-40 -15 -25 0 -40 -7 -55 -26 -25 -31 -25 -35 -8 -58 9 -12 24 -18 43 -16 16
1 41 2 57 2 l27 1 0 78 c0 67 -3 80 -19 89 -25 13 -98 13 -106 0z m103 -109
c5 -31 -8 -42 -48 -43 -51 -2 -63 43 -16 62 35 15 61 7 64 -19z"/>
<path d="M3479 1611 c-33 -34 -38 -78 -13 -116 17 -27 71 -46 104 -38 34 9 22
23 -19 23 -47 0 -71 26 -71 77 0 41 23 63 66 63 19 0 34 5 34 10 0 6 -16 10
-36 10 -26 0 -43 -8 -65 -29z"/>
<path d="M3620 1561 c0 -101 7 -108 100 -98 19 2 36 7 38 11 7 19 1 166 -8
166 -5 0 -10 -35 -12 -77 l-3 -78 -38 -3 c-32 -3 -38 0 -47 23 -6 14 -10 51
-10 81 0 30 -4 54 -10 54 -6 0 -10 -33 -10 -79z"/>
<path d="M3990 1630 c0 -5 20 -10 45 -10 34 0 47 -5 55 -20 15 -27 8 -35 -32
-38 -44 -4 -78 -27 -78 -55 0 -37 15 -49 56 -47 22 1 49 2 62 2 21 0 22 4 22
79 0 67 -3 80 -19 89 -25 13 -111 13 -111 0z m108 -109 c5 -31 -8 -42 -48 -43
-51 -2 -63 43 -16 62 35 15 61 7 64 -19z"/>
<path d="M4930 1550 c0 -73 3 -90 15 -90 12 0 15 15 15 74 0 78 5 86 54 86 36
0 46 -19 46 -93 0 -50 3 -68 12 -65 16 6 13 144 -3 164 -14 17 -62 18 -92 3
-16 -9 -22 -9 -25 0 -2 6 -8 11 -13 11 -5 0 -9 -40 -9 -90z"/>
<path d="M5509 1636 c-2 -2 -3 -43 -1 -90 3 -66 7 -86 18 -86 11 0 14 17 14
74 0 79 5 86 55 86 33 0 45 -27 45 -99 0 -78 20 -81 21 -3 2 74 -1 94 -13 110
-13 15 -62 16 -91 1 -16 -9 -22 -9 -25 0 -4 11 -15 15 -23 7z"/>
<path d="M5704 1603 c3 -21 6 -62 6 -90 0 -29 5 -53 10 -53 6 0 10 37 10 90 0
77 -2 90 -16 90 -14 0 -15 -7 -10 -37z"/>
<path d="M5940 1550 c0 -53 4 -90 10 -90 6 0 10 27 10 60 0 67 25 106 61 97
11 -3 19 0 19 6 0 7 5 5 10 -3 5 -8 10 -48 10 -87 0 -42 4 -73 10 -73 6 0 10
37 10 90 l0 90 -43 0 c-24 0 -49 -6 -56 -12 -11 -10 -14 -10 -18 0 -13 35 -23
2 -23 -78z"/>
<path d="M6130 1630 c0 -5 20 -10 45 -10 38 0 47 -4 54 -22 12 -31 6 -38 -32
-38 -46 0 -77 -25 -77 -61 0 -36 35 -54 76 -38 15 5 35 7 45 4 17 -6 19 0 19
62 0 93 -15 113 -81 113 -27 0 -49 -4 -49 -10z m108 -109 c4 -27 -4 -36 -39
-44 -54 -13 -76 42 -25 63 35 15 61 7 64 -19z"/>
<path d="M1551 1594 c0 -11 3 -14 6 -6 3 7 2 16 -1 19 -3 4 -6 -2 -5 -13z"/>
<path d="M47 1503 c-8 -85 -8 -175 2 -233 4 -28 7 20 8 128 0 94 -1 172 -2
172 -1 0 -5 -30 -8 -67z"/>
<path d="M1560 1562 c0 -4 7 -17 15 -30 14 -20 14 -26 -1 -69 -19 -55 -29
-149 -13 -120 7 12 18 16 37 12 24 -5 25 -4 5 4 -31 14 -37 45 -18 101 15 45
15 51 0 79 -15 30 -25 39 -25 23z"/>
<path d="M350 1052 c0 -302 -4 -512 -9 -512 -5 0 -39 48 -75 108 -36 59 -66
102 -66 96 0 -14 75 -138 117 -193 33 -43 33 -45 33 -149 0 -122 8 -134 11
-17 1 44 3 83 6 87 2 4 20 -10 40 -30 34 -35 33 -34 -5 14 l-41 50 -1 524 c0
288 -3 526 -5 529 -3 2 -5 -226 -5 -507z"/>
<path d="M1926 1495 c-3 -8 -1 -15 3 -15 5 0 11 7 15 15 3 8 1 15 -3 15 -5 0
-11 -7 -15 -15z"/>
<path d="M2036 1398 c-11 -43 -6 -85 14 -108 11 -13 21 -35 21 -49 2 -22 2
-23 6 -4 2 12 -5 40 -17 63 -16 32 -20 51 -15 81 7 42 1 53 -9 17z"/>
<path d="M1795 1380 c3 -5 8 -10 11 -10 2 0 4 5 4 10 0 6 -5 10 -11 10 -5 0
-7 -4 -4 -10z"/>
<path d="M1535 1310 c-3 -5 -1 -10 4 -10 6 0 11 5 11 10 0 6 -2 10 -4 10 -3 0
-8 -4 -11 -10z"/>
<path d="M1517 1233 c-11 -34 -13 -51 -5 -61 7 -7 11 -62 11 -135 l0 -122 7
100 c4 55 3 120 -2 143 -5 27 -5 58 1 80 15 53 6 50 -12 -5z"/>
<path d="M2032 1260 c0 -14 2 -19 5 -12 2 6 2 18 0 25 -3 6 -5 1 -5 -13z"/>
<path d="M5705 1252 c-13 -9 -7 -262 6 -262 5 0 9 57 9 135 0 74 -1 135 -2
135 -2 0 -7 -4 -13 -8z"/>
<path d="M4430 1210 l0 -40 -43 0 c-49 0 -72 -18 -86 -66 -19 -68 35 -136 92
-115 14 5 33 7 44 5 18 -5 19 2 18 125 0 98 -3 131 -12 131 -8 0 -13 -15 -13
-40z m-2 -129 l-3 -66 -33 -3 c-43 -4 -72 21 -72 62 0 57 40 90 93 78 15 -4
17 -14 15 -71z"/>
<path d="M4792 1208 c3 -43 3 -43 -29 -40 -47 5 -71 -6 -88 -38 -42 -81 14
-169 89 -140 14 5 33 7 41 4 13 -5 15 12 15 125 0 110 -2 131 -15 131 -12 0
-15 -10 -13 -42z m6 -123 c4 -66 -3 -76 -48 -77 -41 -1 -60 22 -60 72 0 57 35
86 85 70 16 -6 21 -18 23 -65z"/>
<path d="M5028 1208 l-3 -42 -45 0 c-39 -1 -47 -5 -67 -35 -13 -19 -23 -47
-23 -62 0 -37 39 -81 70 -80 14 0 41 1 61 2 l35 1 0 129 c-1 93 -4 129 -13
129 -7 0 -13 -18 -15 -42z m2 -129 c0 -55 -2 -60 -27 -70 -58 -22 -106 59 -69
116 17 26 51 36 79 23 13 -7 17 -21 17 -69z"/>
<path d="M6446 1225 c-9 -14 -13 -25 -8 -25 5 0 19 11 32 25 18 19 20 25 8 25
-9 0 -23 -11 -32 -25z"/>
<path d="M3117 1234 c-11 -11 -8 -144 3 -185 18 -65 110 -88 154 -40 30 33 44
210 19 218 -10 4 -13 -18 -13 -85 0 -71 -4 -94 -17 -110 -27 -32 -65 -37 -94
-14 -22 18 -24 29 -27 114 -4 89 -10 116 -25 102z"/>
<path d="M3547 1234 c-9 -10 2 -24 19 -24 8 0 14 7 14 15 0 15 -21 21 -33 9z"/>
<path d="M4237 1233 c-12 -11 -8 -23 8 -23 8 0 15 7 15 15 0 16 -12 20 -23 8z"/>
<path d="M5316 1232 c-8 -13 79 -235 93 -240 6 -2 11 1 11 7 0 5 20 58 45 116
40 93 49 135 27 121 -4 -2 -23 -50 -42 -105 -19 -56 -37 -101 -40 -101 -3 0
-20 44 -39 98 -36 102 -45 120 -55 104z"/>
<path d="M2028 1175 c-1 -30 0 -55 5 -55 4 0 7 25 7 55 0 71 -7 71 -12 0z"/>
<path d="M2077 1191 c-3 -12 11 -44 40 -88 25 -37 49 -79 54 -92 5 -13 12 -21
15 -18 7 6 -16 51 -58 114 -18 26 -34 59 -36 73 -4 32 -8 35 -15 11z"/>
<path d="M60 1176 c0 -14 4 -27 8 -30 5 -3 6 8 4 25 -5 35 -12 38 -12 5z"/>
<path d="M1806 1181 c-7 -10 3 -41 13 -41 3 0 6 11 6 25 0 25 -9 33 -19 16z"/>
<path d="M1480 1171 c0 -4 -13 -24 -28 -44 -16 -20 -37 -57 -46 -84 -10 -26
-27 -66 -37 -89 -10 -22 -19 -45 -19 -50 1 -15 41 66 61 123 10 29 34 73 54
97 37 45 42 56 25 56 -5 0 -10 -4 -10 -9z"/>
<path d="M1881 1163 c0 -12 -9 -27 -18 -32 -16 -9 -16 -10 4 -11 26 0 53 25
52 48 -1 15 -2 15 -6 0 -2 -10 -8 -18 -13 -18 -5 0 -11 8 -13 18 -4 13 -5 12
-6 -5z"/>
<path d="M3834 1169 c-53 -19 -72 -104 -34 -152 20 -26 75 -42 104 -31 30 12
16 24 -27 24 -46 0 -77 21 -77 53 0 14 11 17 65 17 59 0 65 2 65 21 0 48 -51
85 -96 68z m47 -19 c43 -24 15 -59 -48 -60 -52 0 -31 58 25 69 2 1 12 -4 23
-9z"/>
<path d="M5144 1165 c-53 -22 -71 -101 -34 -147 20 -26 84 -44 114 -32 29 11
17 24 -22 24 -44 0 -82 23 -82 51 0 17 7 19 60 19 60 0 65 4 60 40 -3 20 -27
47 -49 53 -10 2 -31 -1 -47 -8z m68 -29 c20 -29 -3 -46 -64 -46 -21 0 -28 5
-28 19 0 41 70 61 92 27z"/>
<path d="M3350 1080 c0 -73 3 -90 15 -90 12 0 15 15 15 74 0 78 5 86 54 86 36
0 46 -19 46 -92 0 -83 20 -92 21 -10 2 74 -1 94 -13 110 -13 15 -62 16 -91 1
-16 -9 -22 -9 -25 0 -2 6 -8 11 -13 11 -5 0 -9 -40 -9 -90z"/>
<path d="M3544 1139 c3 -17 6 -58 6 -90 0 -33 4 -59 10 -59 6 0 10 37 10 90 0
76 -2 90 -16 90 -13 0 -15 -7 -10 -31z"/>
<path d="M3603 1158 c2 -7 17 -48 33 -90 16 -43 34 -78 39 -78 6 0 20 24 32
53 12 28 29 69 38 91 11 27 13 37 4 34 -7 -2 -24 -34 -37 -71 -14 -37 -28 -67
-32 -67 -3 0 -14 26 -24 58 -19 60 -32 82 -48 82 -6 0 -8 -6 -5 -12z"/>
<path d="M3964 1139 c3 -17 6 -58 6 -90 0 -33 4 -59 10 -59 6 0 10 27 10 60 0
67 25 106 59 95 12 -3 21 0 25 10 7 19 -43 21 -63 3 -11 -10 -14 -10 -18 0 -3
6 -12 12 -20 12 -12 0 -14 -7 -9 -31z"/>
<path d="M4096 1151 c-26 -29 -12 -59 40 -84 24 -11 44 -27 44 -34 0 -18 -46
-34 -76 -27 -13 3 -24 2 -24 -4 0 -12 43 -21 76 -14 28 5 50 41 41 66 -3 8
-24 24 -47 36 -56 29 -56 60 0 60 22 0 40 5 40 10 0 19 -76 11 -94 -9z"/>
<path d="M4234 1080 c1 -58 5 -90 12 -90 15 0 13 172 -2 177 -7 2 -11 -25 -10
-87z"/>
<path d="M4500 1160 c0 -5 20 -10 45 -10 34 0 47 -5 55 -20 15 -28 5 -40 -33
-40 -46 0 -77 -25 -77 -61 0 -36 33 -53 80 -39 17 5 38 6 46 3 11 -4 14 9 14
76 0 69 -3 82 -19 91 -25 13 -111 13 -111 0z m105 -115 c0 -25 -5 -30 -33 -36
-34 -7 -67 12 -59 35 5 16 49 37 72 34 15 -2 20 -11 20 -33z"/>
<path d="M5520 1160 c0 -5 20 -10 45 -10 34 0 47 -5 55 -20 15 -28 5 -40 -33
-40 -41 0 -77 -25 -77 -53 0 -38 16 -51 57 -48 21 1 48 3 61 3 21 0 22 4 22
79 0 67 -3 80 -19 89 -25 13 -111 13 -111 0z m108 -109 c4 -27 -3 -36 -40 -45
-18 -4 -32 -1 -43 10 -20 20 -15 35 16 52 35 18 63 11 67 -17z"/>
<path d="M5764 1136 c3 -16 6 -75 6 -132 0 -63 4 -104 10 -104 6 0 10 20 10
44 l0 44 44 -1 c52 -2 72 13 86 64 8 30 7 46 -4 73 -16 39 -34 46 -109 43 -48
-2 -48 -2 -43 -31z m120 -8 c46 -65 -8 -149 -78 -122 -20 8 -23 129 -3 137 30
13 67 6 81 -15z"/>
<path d="M5965 1160 c-4 -6 11 -10 39 -10 36 0 48 -4 57 -21 13 -26 -1 -39
-43 -39 -33 0 -68 -31 -68 -60 0 -31 40 -52 79 -40 18 5 39 6 47 3 11 -4 14 9
14 76 0 69 -3 82 -19 91 -25 13 -98 13 -106 0z m100 -115 c0 -28 -3 -30 -39
-33 -57 -5 -73 37 -22 58 39 17 61 8 61 -25z"/>
<path d="M6134 1139 c3 -17 6 -58 6 -90 0 -33 4 -59 10 -59 6 0 10 27 10 60 0
68 24 106 61 95 13 -4 19 -2 19 9 0 19 -40 22 -59 4 -11 -10 -14 -10 -18 0 -3
6 -12 12 -20 12 -12 0 -14 -7 -9 -31z"/>
<path d="M6255 1160 c-4 -6 11 -10 37 -10 52 0 71 -11 66 -36 -2 -13 -15 -21
-40 -25 -48 -8 -68 -25 -68 -60 0 -38 29 -54 74 -39 18 6 39 8 47 5 22 -8 13
145 -9 163 -19 14 -98 16 -107 2z m105 -110 c0 -34 -30 -53 -65 -40 -48 17
-17 68 43 69 18 1 22 -4 22 -29z"/>
<path d="M6430 1080 c0 -65 3 -90 13 -90 9 0 11 23 9 90 -2 49 -8 90 -13 90
-5 0 -9 -40 -9 -90z"/>
<path d="M6505 1146 c-21 -31 -13 -46 40 -78 25 -15 45 -32 45 -37 0 -17 -33
-28 -67 -24 -42 5 -43 -12 -2 -21 47 -9 84 12 84 49 0 25 -7 34 -42 53 -58 32
-59 62 -3 62 22 0 40 5 40 10 0 6 -18 10 -40 10 -31 0 -43 -5 -55 -24z"/>
<path d="M6666 1139 c-55 -65 -17 -159 64 -159 12 0 35 13 51 29 60 60 26 161
-55 161 -26 0 -40 -7 -60 -31z m101 -2 c19 -14 26 -72 12 -98 -36 -69 -109
-42 -109 41 0 40 7 52 34 67 20 11 41 8 63 -10z"/>
<path d="M1716 1136 c4 -11 18 -16 43 -15 l36 1 -31 7 c-17 4 -36 11 -42 15
-8 5 -10 2 -6 -8z"/>
<path d="M1792 1080 c0 -19 2 -27 5 -17 2 9 2 25 0 35 -3 9 -5 1 -5 -18z"/>
<path d="M1842 1063 c1 -18 6 -29 10 -27 9 6 5 40 -5 51 -4 4 -7 -7 -5 -24z"/>
<path d="M1755 1072 c-5 -4 -16 -15 -24 -25 -12 -15 -12 -17 0 -12 8 3 20 14
27 25 13 22 13 24 -3 12z"/>
<path d="M2042 1025 c0 -16 2 -22 5 -12 2 9 2 23 0 30 -3 6 -5 -1 -5 -18z"/>
<path d="M1775 1002 c16 -15 21 -16 23 -5 2 8 10 12 19 9 8 -3 21 -6 28 -6 8
0 23 -20 33 -44 11 -24 24 -46 29 -49 6 -4 -1 15 -13 41 -13 26 -24 52 -24 57
0 6 -26 11 -57 13 -56 3 -57 2 -38 -16z"/>
<path d="M100 994 c0 -16 64 -184 71 -184 3 0 -9 42 -28 93 -35 91 -43 109
-43 91z"/>
<path d="M2043 945 c0 -22 2 -30 4 -17 2 12 2 30 0 40 -3 9 -5 -1 -4 -23z"/>
<path d="M1531 865 c-1 -22 -8 -51 -16 -65 -19 -33 -19 -49 -1 -24 14 18 15
18 25 -6 9 -21 10 -18 5 18 -5 39 -3 48 22 75 28 31 28 31 2 8 l-26 -23 -5 28
c-3 24 -4 21 -6 -11z"/>
<path d="M1946 855 c14 -19 31 -35 37 -35 6 0 -4 16 -23 35 -19 19 -36 35 -37
35 -2 0 8 -16 23 -35z"/>
<path d="M1342 849 c-2 -27 -11 -44 -37 -68 -19 -17 -35 -35 -35 -39 0 -4 -24
-32 -52 -63 -126 -135 -144 -162 -172 -254 -10 -33 -22 -65 -27 -71 -5 -6 -11
-36 -15 -67 -8 -68 -37 -121 -62 -113 -15 5 -15 4 1 -8 14 -10 15 -15 5 -19
-9 -4 -8 -6 3 -6 19 -1 59 75 59 113 0 15 9 52 21 84 11 31 25 74 30 94 14 57
45 106 118 187 36 40 81 91 99 114 17 22 32 36 32 31 0 -5 10 5 21 23 13 21
19 43 16 65 l-4 33 -1 -36z"/>
<path d="M1758 837 c-10 -23 -18 -51 -17 -62 0 -12 5 -6 11 14 7 26 12 31 19
20 6 -10 9 -1 9 29 0 23 -1 42 -2 42 -2 0 -11 -19 -20 -43z"/>
<path d="M2032 818 c-2 -26 -22 -41 -22 -16 0 6 -3 8 -6 5 -4 -4 -2 -13 5 -21
8 -10 9 -21 1 -40 -5 -15 -10 -35 -9 -44 0 -9 6 -3 12 15 13 36 27 53 27 34 0
-7 9 -24 20 -38 11 -14 20 -33 20 -43 0 -9 11 -29 25 -44 14 -15 25 -23 25
-17 0 5 -4 12 -9 15 -17 11 -80 150 -84 186 -3 28 -4 30 -5 8z"/>
<path d="M4180 631 l0 -148 50 -6 c61 -7 93 3 116 38 45 68 10 167 -61 173
-21 2 -42 -1 -48 -7 -21 -21 -27 -11 -27 44 0 42 -3 55 -15 55 -13 0 -15 -23
-15 -149z m113 30 c48 -19 59 -108 17 -146 -12 -11 -31 -15 -57 -13 l-38 3 -3
73 c-3 67 -1 73 20 82 30 12 32 12 61 1z"/>
<path d="M5412 733 l3 -48 -45 3 c-37 3 -50 -1 -72 -21 -48 -45 -49 -127 -2
-174 21 -21 31 -24 57 -18 18 4 46 7 62 7 l30 0 0 149 c0 138 -1 149 -18 149
-16 0 -18 -7 -15 -47z m-4 -75 c7 -7 12 -39 12 -73 0 -69 -10 -85 -54 -85 -46
1 -68 22 -73 74 -5 38 -2 48 20 70 28 28 74 35 95 14z"/>
<path d="M6730 630 c0 -127 2 -150 15 -150 13 0 15 23 15 150 0 127 -2 150
-15 150 -13 0 -15 -23 -15 -150z"/>
<path d="M1777 755 c-4 -8 -2 -17 3 -20 6 -4 10 3 10 14 0 25 -6 27 -13 6z"/>
<path d="M4414 759 c-8 -14 11 -33 25 -25 16 10 13 36 -3 36 -8 0 -18 -5 -22
-11z"/>
<path d="M5494 759 c-8 -14 11 -33 25 -25 16 10 13 36 -3 36 -8 0 -18 -5 -22
-11z"/>
<path d="M1475 740 c-3 -5 -2 -10 4 -10 5 0 13 5 16 10 3 6 2 10 -4 10 -5 0
-13 -4 -16 -10z"/>
<path d="M2246 737 c3 -10 9 -15 12 -12 3 3 0 11 -7 18 -10 9 -11 8 -5 -6z"/>
<path d="M1556 710 c8 -42 8 -58 1 -130 -6 -53 -6 -53 2 -9 5 26 13 55 18 65
7 13 4 32 -9 64 -17 41 -18 42 -12 10z"/>
<path d="M1416 675 c-21 -25 -36 -45 -34 -45 2 0 24 20 48 45 24 25 39 45 33
45 -6 0 -27 -20 -47 -45z"/>
<path d="M1740 685 c0 -8 4 -15 10 -15 5 0 7 7 4 15 -4 8 -8 15 -10 15 -2 0
-4 -7 -4 -15z"/>
<path d="M2281 674 c0 -11 3 -14 6 -6 3 7 2 16 -1 19 -3 4 -6 -2 -5 -13z"/>
<path d="M4417 683 c-4 -3 -7 -51 -7 -105 0 -80 3 -98 15 -98 12 0 15 18 15
105 0 96 -5 117 -23 98z"/>
<path d="M4518 662 c-27 -25 -32 -36 -32 -81 -1 -48 2 -56 33 -83 29 -26 40
-29 73 -25 21 3 46 11 55 19 26 21 43 72 36 112 -14 85 -100 115 -165 58z
m112 -12 c30 -30 28 -103 -5 -135 -31 -31 -49 -31 -80 0 -51 50 -24 155 40
155 14 0 34 -9 45 -20z"/>
<path d="M4718 683 c-2 -5 -2 -52 0 -106 2 -70 7 -97 15 -94 11 3 13 26 16
138 1 34 48 57 80 40 26 -14 33 -43 29 -116 -2 -40 1 -59 10 -62 9 -4 12 16
12 75 0 89 10 105 61 105 42 0 49 -15 49 -105 0 -63 3 -78 15 -78 12 0 15 17
15 89 0 82 -2 91 -22 105 -28 20 -62 20 -92 1 -20 -13 -25 -13 -42 0 -25 19
-64 19 -92 -1 -20 -14 -23 -14 -28 0 -6 17 -21 21 -26 9z"/>
<path d="M5087 664 c-48 -48 -44 -136 7 -169 37 -24 97 -30 121 -11 19 15 17
15 -26 16 -51 0 -93 25 -102 60 -5 19 0 20 69 20 l74 0 0 35 c0 71 -90 103
-143 49z m101 -6 c7 -7 12 -22 12 -35 0 -21 -4 -23 -55 -23 -45 0 -55 3 -55
17 0 42 68 71 98 41z"/>
<path d="M5497 683 c-4 -3 -7 -51 -7 -105 0 -80 3 -98 15 -98 12 0 15 18 15
105 0 96 -5 117 -23 98z"/>
<path d="M5618 674 c-31 -16 -58 -61 -58 -96 0 -61 76 -119 136 -104 35 9 29
26 -10 26 -19 0 -45 9 -60 21 -21 16 -26 29 -26 64 0 61 21 80 88 77 13 -1 22
5 22 13 0 20 -56 19 -92 -1z"/>
<path d="M5757 683 c-17 -16 -4 -23 42 -22 58 2 71 -5 71 -35 0 -20 -6 -24
-47 -29 -52 -6 -83 -33 -83 -73 0 -46 73 -66 117 -32 7 5 14 5 18 -2 17 -27
25 -3 25 75 0 105 -14 125 -88 125 -27 0 -52 -3 -55 -7z m113 -137 c0 -37 -12
-46 -60 -46 -19 0 -33 7 -40 20 -15 28 19 60 65 60 33 0 35 -2 35 -34z"/>
<path d="M6583 671 c-45 -28 -63 -88 -40 -137 26 -54 118 -84 147 -49 11 13 7
15 -28 15 -57 0 -94 33 -94 84 0 50 28 78 79 80 48 1 50 20 3 24 -21 1 -47 -5
-67 -17z"/>
<path d="M1982 660 c-7 -11 -12 -28 -12 -37 1 -10 7 -3 16 16 16 38 14 50 -4
21z"/>
<path d="M3125 584 c20 -54 37 -100 40 -102 10 -11 23 13 45 83 13 41 28 74
33 72 6 -2 23 -38 39 -80 17 -42 33 -77 38 -77 8 0 80 171 80 190 0 6 -7 10
-15 10 -8 0 -15 -5 -15 -11 0 -26 -42 -150 -48 -144 -4 4 -18 39 -32 78 -34
96 -49 97 -79 5 -14 -40 -27 -77 -30 -82 -2 -6 -17 26 -31 70 -18 52 -32 80
-43 82 -14 3 -11 -12 18 -94z"/>
<path d="M3445 585 c19 -53 35 -98 35 -100 0 -3 6 -5 14 -5 10 0 25 31 42 85
16 47 31 82 35 77 3 -4 19 -42 34 -84 15 -43 33 -78 40 -78 7 0 28 43 46 95
18 52 38 94 43 92 5 -2 24 -43 41 -92 18 -49 37 -91 42 -92 9 -3 63 131 63
157 0 28 20 -6 46 -80 16 -44 34 -80 40 -80 10 0 84 168 84 191 0 5 -6 9 -14
9 -8 0 -22 -31 -37 -80 -13 -44 -26 -80 -29 -80 -3 0 -17 35 -31 78 -34 103
-49 105 -84 8 -15 -42 -31 -76 -35 -76 -3 0 -17 34 -30 75 -23 72 -25 75 -55
75 -29 0 -32 -4 -49 -57 -37 -118 -35 -117 -66 -28 -36 106 -53 108 -90 8 -14
-40 -28 -74 -30 -77 -3 -2 -16 31 -29 75 -18 61 -28 79 -42 79 -16 0 -15 -9
16 -95z"/>
<path d="M6040 611 c0 -121 32 -159 110 -128 22 8 40 11 40 6 0 -5 7 -9 15 -9
12 0 15 18 15 100 0 89 -2 100 -18 100 -15 0 -17 -9 -14 -77 5 -85 -6 -103
-59 -103 -39 0 -52 22 -57 105 -3 55 -8 75 -18 75 -11 0 -14 -17 -14 -69z"/>
<path d="M6254 643 c37 -100 63 -157 71 -160 8 -2 95 172 95 191 0 3 -6 6 -12
6 -7 0 -26 -36 -41 -81 -16 -44 -32 -78 -35 -74 -4 3 -18 38 -32 78 -17 45
-33 73 -43 75 -15 3 -15 0 -3 -35z"/>
<path d="M1780 595 c-6 -70 -5 -83 5 -73 3 3 5 37 3 74 l-3 69 -5 -70z"/>
<path d="M2168 653 c7 -3 16 -2 19 1 4 3 -2 6 -13 5 -11 0 -14 -3 -6 -6z"/>
<path d="M2285 635 c4 -11 8 -25 9 -31 1 -5 12 -23 24 -38 15 -19 22 -24 22
-13 0 9 -5 19 -10 22 -6 3 -19 23 -31 43 -11 20 -17 28 -14 17z"/>
<path d="M1343 611 c-9 -11 -21 -17 -26 -14 -6 3 -7 1 -3 -5 5 -9 14 -7 31 5
14 10 25 21 25 26 0 12 -9 8 -27 -12z"/>
<path d="M1852 600 c0 -14 2 -19 5 -12 2 6 2 18 0 25 -3 6 -5 1 -5 -13z"/>
<path d="M1960 581 c0 -5 5 -13 10 -16 6 -3 10 -2 10 4 0 5 -4 13 -10 16 -5 3
-10 2 -10 -4z"/>
<path d="M2136 570 c3 -14 10 -29 15 -34 14 -16 10 6 -7 34 l-15 25 7 -25z"/>
<path d="M1710 570 c0 -5 7 -7 15 -4 8 4 15 8 15 10 0 2 -7 4 -15 4 -8 0 -15
-4 -15 -10z"/>
<path d="M1300 551 c-12 -24 -13 -34 -1 -27 9 6 22 46 15 46 -2 0 -8 -9 -14
-19z"/>
<path d="M1951 494 c-11 -31 -21 -66 -21 -77 1 -15 6 -9 16 18 8 22 17 48 19
58 2 10 7 27 10 38 14 42 -4 16 -24 -37z"/>
<path d="M2355 540 c-4 -6 4 -25 18 -43 13 -18 32 -47 41 -65 10 -19 20 -31
23 -29 3 3 -9 27 -26 52 -33 48 -38 60 -21 50 6 -3 10 -1 10 5 0 6 -8 10 -17
8 -12 -2 -18 3 -17 15 2 19 -2 22 -11 7z"/>
<path d="M1701 526 c-7 -8 -8 -17 -3 -20 6 -3 12 3 15 14 6 24 4 25 -12 6z"/>
<path d="M4080 505 c0 -22 4 -26 23 -23 14 2 22 10 22 23 0 13 -8 21 -22 23
-19 3 -23 -1 -23 -23z"/>
<path d="M5953 514 c-3 -8 -1 -20 5 -26 16 -16 42 -2 42 22 0 24 -38 28 -47 4z"/>
<path d="M6453 514 c-3 -8 -1 -20 5 -26 16 -16 42 -2 42 22 0 24 -38 28 -47 4z"/>
<path d="M1277 503 c-4 -3 -7 -13 -7 -22 1 -13 3 -13 11 2 11 19 8 33 -4 20z"/>
<path d="M2157 497 c-3 -9 1 -18 9 -21 16 -6 18 2 5 22 -7 11 -9 11 -14 -1z"/>
<path d="M1542 480 c0 -14 2 -19 5 -12 2 6 2 18 0 25 -3 6 -5 1 -5 -13z"/>
<path d="M1636 477 c3 -10 9 -15 12 -12 3 3 0 11 -7 18 -10 9 -11 8 -5 -6z"/>
<path d="M1766 464 c-4 -14 -5 -28 -3 -31 3 -2 8 8 11 23 4 14 5 28 3 31 -3 2
-8 -8 -11 -23z"/>
<path d="M1876 475 c4 -8 11 -15 16 -15 6 0 5 6 -2 15 -7 8 -14 15 -16 15 -2
0 -1 -7 2 -15z"/>
<path d="M1578 473 c6 -2 18 -2 25 0 6 3 1 5 -13 5 -14 0 -19 -2 -12 -5z"/>
<path d="M1677 460 c3 -11 7 -20 8 -20 1 0 5 9 8 20 3 12 0 20 -8 20 -8 0 -11
-8 -8 -20z"/>
<path d="M2170 451 c0 -6 5 -13 10 -16 6 -3 10 1 10 9 0 9 -4 16 -10 16 -5 0
-10 -4 -10 -9z"/>
<path d="M1244 425 c-9 -14 -15 -28 -12 -30 2 -2 12 9 22 25 21 36 13 40 -10
5z"/>
<path d="M1523 424 c-14 -51 -8 -186 10 -219 9 -16 17 -35 17 -42 0 -6 4 -14
10 -18 9 -6 -6 51 -29 108 -14 36 -14 100 0 150 6 22 8 41 5 44 -3 3 -9 -8
-13 -23z"/>
<path d="M1751 394 c0 -11 3 -14 6 -6 3 7 2 16 -1 19 -3 4 -6 -2 -5 -13z"/>
<path d="M2190 404 c0 -6 15 -23 32 -40 l33 -29 -25 30 c-14 17 -28 34 -32 40
-5 5 -8 5 -8 -1z"/>
<path d="M2441 385 c1 -19 18 -51 18 -35 0 8 -4 22 -9 30 -5 8 -9 11 -9 5z"/>
<path d="M1194 358 l-19 -23 23 19 c12 11 22 21 22 23 0 8 -8 2 -26 -19z"/>
<path d="M1741 344 c0 -11 3 -14 6 -6 3 7 2 16 -1 19 -3 4 -6 -2 -5 -13z"/>
<path d="M1936 323 c10 -40 14 -41 14 -5 0 18 -5 32 -10 32 -6 0 -8 -11 -4
-27z"/>
<path d="M515 330 c3 -5 16 -15 28 -21 22 -12 22 -12 3 10 -19 21 -43 30 -31
11z"/>
<path d="M1127 274 c-21 -30 -37 -60 -35 -66 2 -6 12 5 21 24 9 19 24 41 32
48 20 16 39 50 28 50 -4 -1 -25 -26 -46 -56z"/>
<path d="M2460 323 c0 -4 5 -15 10 -23 8 -13 10 -13 10 2 0 9 -4 20 -10 23 -5
3 -10 3 -10 -2z"/>
<path d="M2280 286 c0 -2 7 -9 15 -16 13 -11 14 -10 9 4 -5 14 -24 23 -24 12z"/>
<path d="M363 235 c0 -27 2 -38 4 -22 2 15 2 37 0 50 -2 12 -4 0 -4 -28z"/>
<path d="M1750 254 c0 -5 7 -19 15 -30 8 -10 15 -35 15 -54 1 -34 2 -34 12
-10 l11 25 6 -25 c7 -25 7 -25 13 -3 4 16 1 24 -11 28 -9 3 -27 22 -39 43 -12
20 -22 32 -22 26z"/>
<path d="M2980 229 l-35 -30 38 26 c33 24 43 35 34 35 -1 0 -18 -14 -37 -31z"/>
<path d="M2506 220 c20 -43 24 -47 24 -29 0 8 -10 25 -21 39 l-20 25 17 -35z"/>
<path d="M1940 220 c0 -11 4 -20 9 -20 5 0 7 9 4 20 -3 11 -7 20 -9 20 -2 0
-4 -9 -4 -20z"/>
<path d="M2320 226 c0 -2 7 -9 15 -16 9 -7 15 -8 15 -2 0 5 -7 12 -15 16 -8 3
-15 4 -15 2z"/>
<path d="M669 206 c13 -16 51 -41 51 -33 0 2 -15 14 -32 27 -21 15 -28 17 -19
6z"/>
<path d="M1690 203 c0 -4 5 -15 10 -23 8 -13 10 -13 10 2 0 9 -4 20 -10 23 -5
3 -10 3 -10 -2z"/>
<path d="M2908 182 c-16 -10 -28 -21 -28 -25 0 -5 14 1 30 13 17 12 30 23 30
26 0 5 0 5 -32 -14z"/>
<path d="M890 180 c0 -5 7 -10 16 -10 8 0 12 5 9 10 -3 6 -10 10 -16 10 -5 0
-9 -4 -9 -10z"/>
<path d="M1077 171 c-3 -12 -2 -23 3 -26 12 -7 22 27 12 37 -6 6 -12 1 -15
-11z"/>
<path d="M1942 160 c0 -14 2 -19 5 -12 2 6 2 18 0 25 -3 6 -5 1 -5 -13z"/>
<path d="M2394 161 c20 -22 26 -25 26 -13 0 4 -10 13 -22 21 -23 14 -23 14 -4
-8z"/>
<path d="M2540 155 c7 -8 17 -15 22 -15 6 0 5 7 -2 15 -7 8 -17 15 -22 15 -6
0 -5 -7 2 -15z"/>
<path d="M880 150 c-12 -8 -9 -10 12 -7 15 1 30 6 34 10 11 11 -29 8 -46 -3z"/>
<path d="M4590 100 l-4135 -5 4132 -3 c2746 -1 4134 1 4138 8 3 6 5 9 3 8 -2
-2 -1864 -5 -4138 -8z"/>
</g>
</svg>
